<svg xmlns="http://www.w3.org/2000/svg" width="74" height="74" fill="none" xmlns:v="https://vecta.io/nano"><mask id="A" fill="#fff"><path fill-rule="evenodd" d="M9.768 73.15C9 73.5 9 73 7 71l-2-2c-1.183-1.182-1.5-1-2.5-2.5-1.656-2.262-.5-1-1.656-2.262l51.64-51.632H17.595V10.5 6 2 0h50.103H74v6.303V56.41l-3 .09c-2 0-1.829-.09-3.5-.09H64h-2.605V21.518L9.768 73.15z"/></mask><path d="M9.768 73.15l.415.91.164-.075.128-.128-.707-.707zM2.5 66.5l.832-.555-.012-.018-.013-.018-.807.591zM.844 64.238l-.707-.707-.677.677.647.706.737-.675zm51.64-51.632l.707.707 1.707-1.707h-2.414v1zm-34.889 0h-1v1h1v-1zm0-10.606l.995.095.005-.047V2h-1zm0-2v-1h-1v1h1zM74 0h1v-1h-1v1zm0 56.41l.03 1 .97-.029v-.97h-1zm-12.605 0h-1v1h1v-1zm0-34.892h1v-2.414l-1.707 1.707.707.707zM9.353 72.24c-.131.06-.034-.013.143.024.151.031.188.11.042-.03-.14-.134-.315-.332-.629-.678l-1.201-1.263-1.414 1.414 1.135 1.194.726.777c.2.191.506.454.935.543.455.095.841-.047 1.093-.162l-.83-1.82zm-1.646-1.947l-2-2.001-1.413 1.415c1.184 1.183-.004-.004 2 1.999l1.414-1.414zm-2-2.001c-.637-.636-1.097-.954-1.39-1.195-.268-.22-.533-.474-.985-1.152l-1.664 1.109c.548.822.941 1.228 1.378 1.587.412.339.701.52 1.248 1.066l1.413-1.415zm-2.4-2.383l-.928-1.363c-.143-.285-.281-.42-.798-.984L.106 64.913l.488.539c.022.026-.005-.011-.004-.011.102.203.268.509 1.103 1.65l1.614-1.181zm-1.756-.964l51.64-51.632-1.414-1.414L.137 63.531l1.414 1.414zm50.933-53.339H17.595v2h34.889v-2zm-33.889 1v-.026-.025-.024-.024-.023-.023-.022-.022-.021-.021-.02-.025-.024-.023-.023-.022-.021-.021-.024-.023-.022-.022-.021-.02-.023-.022-.021-.021-.022-.022-.021-.02-.022-.022-.021-.021-.021-.021-.021-.021-.021-.021-.022-.022-.021-.021-.022-.023-.021-.021-.022-.023-.02-.021-.022-.023-.024-.02-.021-.021-.022-.023-.023-.024-.025-.02-.021-.021-.022-.022-.023-.024-.024-.025-.025-.026-.026-.02-.021-.021-.021-.022-.022-.022-.023-.023-.023-.024-.024-.024-.025-.025-.026-.026h-2v.026.026.025.025.024.024.024.023.023.023.022.022.022.021.021.021.02.026.026.025.025.024.024.023.022.022.021.021.02.025.024.023.023.022.021.021.02.024.023.022.021.02.023.022.021.021.023.022.021.021.022.022.021.021.021.021.021.021.021.021.022.022.02.021.022.022.021.021.022.023.02.021.022.022.023.024.021.021.022.023.023.024.025.02.021.021.022.022.023.023.024.024.025.026h2zm0-2.106v-.026-.026-.026-.026-.026-.026-.026-.026-.026-.026-.026-.026-.026-.026-.026-.026-.026-.026-.026-.026-.026-.026-.026-.026-.026-.026-.026-.026-.026-.026-.026-.026-.026-.026-.026-.026-.025-.025-.025-.025-.025-.025-.025-.025-.025-.025-.025-.025-.025-.025-.025-.025-.025-.025-.025-.025-.025-.025-.025-.025-.025-.025-.025-.025-.025-.025-.025-.025-.025-.025-.025-.025-.025-.025-.025-.025-.025-.025-.026-.026-.026V8.4v-.026-.026-.026-.026-.026-.026-.026-.026-.026-.026-.026-.026-.026-.026-.026-.026-.026-.026-.026-.026-.026-.026-.026-.026-.026-.026-.026-.026-.026-.026-.026-.026-.026-.026-.026-.027-.027-.027-.027-.027-.027-.027-.027-.027-.027-.027-.027-.027-.027-.027-.027-.027-.027-.027-.027-.027-.027-.027-.028-.028-.028-.028-.028-.028-.028-.028-.028-.028-.028-.028-.028-.028-.028-.028-.028-.029-.029-.029-.029-.029-.029-.029-.029-.029-.029-.029-.029-.029l-2-.02v.029.029.029.029.029.029.029.029.029.029.029.029.029.028.028.028.028.028.028.028.028.028.028.028.028.028.028.028.028.028.028.027.027.027.027.027.027.027.027.027.027.027.027.027.027.027.027.027.027.027.027.027.027.026.026.026.026.026.026.026.026.026.026.026.026.026.026.026.026.026.026.026.026.026.026.026.026.026.026.026.026.026.026.026.026.026.026.026.026.026.026.026.025.025.025.025.025.025.025.025.025.025.025.025.025.025.025.025.025.025.025.025.025.025.025.025.025.025.025.025.025.025.025.025.025.025.025.025.025.025.025.025.025.025.026.025.026.026.026.026.026.026.026.026.026.026.026.026.026.026.026.026.026.026.026.026.026.026.026.026.026.026.026.026.026.026.026.026.026.026l2 .018zm0-4.5l-.036-2.27.031-1.636-1.991-.189c-.053.562-.052 1.194-.04 1.861L16.595 6h2zm0-4v-.023-.023-.023-.023-.022-.022-.022-.022-.022-.021-.021-.021-.021-.02-.02-.02-.03-.029-.029-.028-.028-.027-.027-.026-.026-.026-.025-.025-.024-.024-.024-.023-.023-.022-.022-.022-.021-.021-.02-.02-.026-.025-.025-.024-.024-.023-.022V.87.849.828.808.783.76.737.715.694.674.65.627.606.585.562.541.52.498.478.456.435.414.393.372.351.33.309.288.267.247.227.206.185.165.144.123.103.081.059.039.017l-2-.017v.023.021.02.021.022.02.02.021.02.02.02.021.02.02.021.021.021.021.022.022.021.021.022.021.022.021.022.023.021.022.023.024.021.021.022.023.024.025.02.021.022.022.023.023.024.025.025.026.026.02.021.021.021.022.022.023.023.023.024.024.025.025.025.026.026.027.027.028.028.029.029.03.03.02.02.021.021.021.021.022.022.022.022.022.023.023.023V2h2zm-1-1h50.103v-2H17.595v2zm50.103 0H74v-2c-3.5 0-4.631 0-6.302 0v2zM73 0v.027.027.027.028.028.028.028.029.029.029.03.03.02.02.02.021.021.021.021.021.021.021.021.022.022.022.022.022.022.022.022.022.023.023.023.023.023.023.023.023.023.023.024.024.024.024.024.024.024.024.024.024.024.025.025.025.025.025.025.025.025.025.025.025.025.025.025.026.026.026.026.026.026.026.026.026.026.026.026.026.026V2v.026.027.027.027.027.027.027.027.027.027.027.027.027.027.027.027.027.027.027.027.027.027.027.027.027.027.027.027.027.027.028.028.028.028.028.028.028.028.028.028.028.028.028.028.028.028.028.028.028.028.028.028.028.028.028.028.028.028.028.028.028.028.028.028.027.027.027.027.027.027.027.027.027.027.027.027.027.027.027.027.027.027.027.027.027.027.027.027.027.027.027.027.027.026.026.026.026.026.026.026.026.026.026.026.026.026.026.026.026.026.025.025.025.025.025.025.025.025.025.025.025.025.025.024.024.024.024.024.024.024.024.024.024.024.023.023.023.023.023.023.023.023.023.023.022.022.022.022.022.022.022.022.022.021.021.021.021.021.021.021.021.02.02.02.02.03.03h2v-.03-.03-.02-.02-.02-.02-.021-.021V6.1v-.021-.021-.021-.021-.021-.022-.022-.022-.022-.022-.022-.022-.022-.022-.023-.023-.023-.023-.023-.023-.023-.023-.023-.023-.024-.024-.024-.024-.024-.024V5.4v-.024-.024-.024-.024-.025-.025-.025-.025-.025-.025-.025-.025-.025-.025-.025-.025-.025-.026-.026-.026-.026-.026-.026-.026-.026-.026-.026-.026-.026-.026-.026-.026-.026-.026-.027-.027-.027-.027-.027-.027-.027-.027-.027-.027-.027-.027-.027-.027-.027-.027-.027-.027-.027-.027-.027-.027-.027-.027-.027-.027-.027-.027-.027-.028-.028-.028-.028-.028-.028-.028-.028-.028-.028-.028-.028-.028-.028-.028-.028-.028-.028-.028-.028-.028-.028-.028-.028-.028-.028-.028-.028-.028-.028-.028-.028-.028-.028-.027-.027-.027-.027-.027-.027-.027-.027-.027-.027-.027-.027-.027-.027-.027-.027-.027-.027-.027-.027-.027-.027-.027-.027-.027-.027-.027-.027-.027V2v-.026-.026-.026-.026-.026-.026-.026-.026-.026-.026-.026-.026-.026-.026-.026-.025-.025-.025-.025-.025-.025-.025-.025-.025-.025-.025-.025-.025-.025-.024-.024-.024-.024-.024-.024-.024-.024-.024-.024-.024-.023-.023-.023-.023-.023-.023-.023-.023-.023-.023-.022-.022-.022-.022-.022-.022-.022V.59.568.547.525.504.483.462.442.421.4.38.36.34.32.29.26.231.202.174.145.117.09.062.035.009L73 0zm0 6.303V56.41h2V6.303h-2zm.97 49.107L71 55.5v2l3.03-.091-.06-1.999zM71 55.5a29.17 29.17 0 0 1-1.819-.044L67.5 55.41v2l1.573.044L71 57.5v-2zm-3.5-.09h-.029-.029-.029-.028-.028-.028-.028-.027-.027-.027-.027-.026-.026-.026-.026-.026-.025-.025-.025-.024-.024-.024-.024-.024-.023-.023-.023-.023-.023-.022-.022-.022-.022-.022-.022-.021-.021-.021-.021-.021-.021-.02-.02-.02-.027-.027-.026-.026-.026-.026-.025-.025-.025-.025-.025-.024-.024-.024-.024-.024-.024-.023-.023-.023-.023-.023-.023-.023-.023-.023-.023-.023-.022-.022-.022-.022-.022-.022-.022-.022-.022-.022-.022-.023-.022-.023-.022-.023-.023-.023-.023-.023-.023-.023-.023-.023-.023-.023-.024-.024-.024-.024-.024-.024-.025-.025-.025-.025-.025-.026-.026-.026-.026-.027-.02-.02-.02-.021-.021-.021-.021-.021-.021-.022-.022-.022-.022-.022-.022-.023-.023-.023-.023-.023-.024-.024-.024-.024-.024-.025-.025-.025-.025-.026-.026-.026-.026l-.009 2h.026.026.026.026.025.025.025.025.025.024.024.024.024.023.023.023.023.023.022.022.022.022.022.022.021.021.021.021.021.021.02.02.02.027.026.026.026.026.025.025.025.025.025.025.024.024.024.024.024.023.023.023.023.023.023.023.023.023.023.023.023.023.022.023.022.022.022.022.022.022.022.022.022.022.023.023.023.023.023.023.023.023.023.023.023.023.024.024.024.024.024.024.025.025.025.025.025.026.026.026.026.026.027.02.02.02.021.021.021.021.021.021.022.022.022.022.022.023.023.023.023.023.023.024.024.024.024.024.025.025.025.025.026.026.026.026.026.027.027.027.028.028.028.028.029.029.029l.01-2zm-3.5 0h-.023-.023-.023-.023-.023-.022-.022-.022-.021-.021-.021-.021-.021-.02-.02-.02-.03-.029-.029-.028-.028-.027-.027-.027-.026-.026-.025-.025-.025-.024-.024-.023-.023-.023-.022-.022-.022-.021-.021-.02-.02-.026-.026-.025-.025-.024-.023-.023-.022-.022-.021-.021-.02-.02-.024-.024-.023-.022-.022-.021-.021-.02-.024-.023-.022-.021-.021-.02-.023-.022-.022-.021-.021-.02-.02-.02-.023-.022-.022-.022-.022-.023-.02-.021-.021-.021-.022-.022-.023-.02-.021-.021-.022-.023-.023-.024-.021-.021-.022-.022-.023-.024-.024-.02-.02-.021-.022-.022-.023-.023-.023-.024-.025-.025l-.019 2h.026.025.024.024.023.023.022.022.021.021.02.025.024.023.023.022.022.021.02.024.023.022.022.021.021.02.023.022.022.021.021.02.02.023.023.022.022.023.023.02.02.021.021.021.022.023.023.021.021.022.022.023.024.02.021.021.022.023.023.024.025.02.021.021.022.022.023.023.024.024.025.025.026.027.02.021.021.021.022.022.022.023.023.024.024.024.025.025.026.026.026.027.027.028.028.029.029.03.03.02.02.021.021.021.021.021.022.022.022.023.023.023.023H64v-2zm-1.605 1V21.518h-2V56.41h2zm-1.707-35.599L9.061 72.443l1.414 1.414 51.628-51.632-1.414-1.414z" fill="#111" mask="url(#A)"/></svg>